<?xml version="1.0" standalone="no"?>
<!DOCTYPE svg PUBLIC "-//W3C//DTD SVG 20010904//EN"
 "http://www.w3.org/TR/2001/REC-SVG-20010904/DTD/svg10.dtd">
<svg version="1.0" xmlns="http://www.w3.org/2000/svg"
 width="150.000000pt" height="150.000000pt" viewBox="0 0 150.000000 150.000000"
 preserveAspectRatio="xMidYMid meet">
<metadata>
Created by potrace 1.14, written by Peter Selinger 2001-2017
</metadata>
<g transform="translate(0.000000,150.000000) scale(0.100000,-0.100000)"
fill="#000000" stroke="none">
<path d="M661 1368 c-13 -13 -26 -18 -40 -13 -15 4 -19 3 -16 -7 3 -8 -7 -18
-24 -26 -29 -13 -61 -60 -61 -89 0 -8 -15 -44 -32 -81 -33 -66 -33 -68 -33
-215 0 -130 2 -150 18 -161 9 -7 17 -19 18 -27 0 -8 4 -5 8 6 4 11 5 33 2 50
-4 16 -2 59 3 95 7 41 12 55 14 38 4 -31 19 -39 87 -44 28 -2 55 -6 62 -8 20
-8 34 21 31 61 -2 30 -9 41 -32 51 -32 16 -93 20 -118 8 -16 -7 -17 -2 -11 46
4 42 12 60 39 87 30 32 37 34 90 33 36 -1 64 4 77 13 32 22 64 18 111 -15 50
-34 54 -41 66 -130 5 -36 15 -99 21 -140 l12 -75 18 65 c24 85 24 167 0 235
-10 29 -17 55 -15 58 2 2 -11 28 -29 57 -37 62 -95 102 -188 130 -59 18 -60
18 -78 -2z"/>
<path d="M771 989 c-15 -6 -21 -14 -17 -25 3 -9 6 -26 6 -39 0 -30 21 -37 91
-29 54 6 58 8 65 37 5 25 2 34 -17 48 -26 20 -88 24 -128 8z"/>
<path d="M675 829 c-4 -6 -5 -12 -2 -15 2 -3 7 2 10 11 7 17 1 20 -8 4z"/>
<path d="M673 786 c-13 -6 -23 -16 -23 -23 0 -19 48 -27 75 -13 13 7 31 10 40
6 12 -4 16 -1 13 12 -2 11 -13 17 -33 17 -17 1 -35 3 -40 6 -6 3 -20 1 -32 -5z"/>
<path d="M608 683 c6 -2 18 -2 25 0 6 3 1 5 -13 5 -14 0 -19 -2 -12 -5z"/>
<path d="M658 677 c-52 -10 -61 -22 -25 -33 12 -4 28 -15 35 -25 16 -23 69
-25 97 -6 16 13 15 14 -13 15 -17 0 -39 5 -49 11 -19 11 -15 12 72 16 64 3 69
5 59 15 -14 14 -119 18 -176 7z"/>
<path d="M568 594 c-2 -5 -5 -36 -6 -69 -3 -73 -9 -95 -27 -95 -17 0 -132 -76
-137 -90 -1 -5 -36 -23 -75 -40 -101 -40 -263 -153 -263 -182 0 -6 -14 -33
-30 -60 -17 -26 -30 -50 -30 -53 0 -3 330 -5 734 -5 l734 0 -8 37 c-5 20 -17
44 -27 53 -11 8 -37 41 -58 74 -44 65 -113 108 -195 121 -65 10 -210 84 -221
112 -5 13 -16 23 -25 23 -12 0 -14 -5 -9 -17 17 -38 16 -84 0 -135 -25 -74
-45 -99 -107 -130 -61 -31 -111 -35 -161 -14 -36 14 -90 72 -82 86 3 5 1 11
-5 15 -16 10 -12 49 7 72 l18 22 27 -32 27 -32 -6 48 c-6 52 -2 55 54 35 37
-13 52 -6 33 17 -10 12 -7 18 21 32 42 22 99 79 99 99 0 11 -5 12 -17 6 -32
-17 -98 -22 -138 -11 -47 13 -80 41 -104 88 -10 19 -20 30 -23 25z"/>
</g>
</svg>
